<svg width="111" height="30" viewBox="0 0 111 30" fill="none" xmlns="http://www.w3.org/2000/svg">
<g id="netflix-logo">
<path id="Fill-14" d="M105.062 14.2806L110.999 30C109.249 29.7497 107.5 29.4367 105.718 29.1555L102.374 20.4686L98.9371 28.4375C97.25 28.1563 95.5928 28.0617 93.9057 27.8433L99.9372 14.0932L94.4681 0H99.5313L102.593 7.87422L105.875 0H110.999L105.062 14.2806ZM90.4687 0H85.875V27.25C87.3746 27.3437 88.9371 27.4056 90.4687 27.593V0ZM81.9055 26.9369C77.7186 26.6557 73.5308 26.4064 69.2502 26.3117V0H73.9366V21.8746C76.6248 21.9374 79.312 22.1558 81.9055 22.2804V26.9369ZM64.2497 10.6561V15.3435H57.8442V25.9996H53.2187V0H66.3436V4.68741H57.8442V10.6561H64.2497ZM45.3435 4.68741V26.2499C43.781 26.2499 42.1876 26.2499 40.6561 26.3117V4.68741H35.8122V0H50.2184V4.68741H45.3435ZM4.78114 12.9684V29.343C3.09401 29.5314 1.5934 29.7497 0 30V0H4.46902L10.5624 17.0316V0H15.2498V28.0617C13.5936 28.3438 11.9065 28.4375 10.1247 28.6868L4.78114 12.9684Z" fill="#E50914"/>
<path id="Ellipse 2" d="M34.0586 13.7723C33.9285 21.2259 30.2809 27.2065 25.9115 27.1302C21.5421 27.054 18.1055 20.9497 18.2356 13.4961C18.3657 6.0424 22.0133 0.0618275 26.3827 0.138096C30.752 0.214364 34.1887 6.31859 34.0586 13.7723ZM21.8508 13.5592C21.7802 17.6068 23.6464 20.9217 26.0191 20.9631C28.3919 21.0045 30.3727 17.7568 30.4433 13.7092C30.514 9.66152 28.6478 6.34668 26.275 6.30526C23.9022 6.26385 21.9215 9.51153 21.8508 13.5592Z" fill="#E50914"/>
</g>
</svg>
