<svg viewBox="0 0 24 24"><g id="volume-medium"><path fill="white" d="M11,7.82842712 L8.82842712,10 L6,10 L6,14 L8.82842712,14 L11,16.1715729 L11,7.82842712 Z M13,21 L8,16 L4,16 L4,8 L8,8 L13,3 L13,21 Z M15.7437869,16.3889482 L14.3295734,14.9747347 C15.9546583,13.3496497 15.9546583,10.7148664 14.3295734,9.08978146 L15.7437869,7.6755679 C18.1499205,10.0817014 18.1499205,13.9828147 15.7437869,16.3889482 Z M18.2137399,18.2137399 L16.7995264,16.7995264 C19.4324159,14.1666368 19.4324159,9.89787935 16.7995264,7.26498977 L18.2137399,5.8507762 C21.6276781,9.26471437 21.6276781,14.7998018 18.2137399,18.2137399 Z"></path></g></svg>